<svg width="75" height="75" viewBox="0 0 75 75" fill="none" xmlns="http://www.w3.org/2000/svg">
<g id="Group 6">
<g id="&#240;&#159;&#166;&#134; icon &#34;person&#34;">
<g id="Group 5">
<ellipse id="Ellipse 6" cx="37.5" cy="36.966" rx="37.5" ry="36.966" fill="#848484"/>
<ellipse id="Ellipse 7" cx="37.875" cy="26.6156" rx="18.75" ry="18.483" fill="#123563"/>
<g id="Vector 1">
<mask id="path-3-inside-1_35_3420" fill="white">
<path d="M22.5 70.9748C13.3125 65.7996 4.875 56.0036 4.875 56.0036L9.375 48.2407L19.875 45.6531L31.6875 52.1221H46.125L57.375 43.0654L65.8125 48.2407L70.5 56.0036C70.5 56.0036 61.3125 67.0934 51.375 70.9748C41.4375 74.8562 37.6875 74.8562 37.6875 74.8562C37.6875 74.8562 31.6875 76.1501 22.5 70.9748Z"/>
</mask>
<path d="M4.875 56.0036L-40.978 29.4234L-59.8812 62.033L-35.2826 90.5921L4.875 56.0036ZM37.6875 74.8562V21.8562H32.0381L26.5156 23.0471L37.6875 74.8562ZM51.375 70.9748L32.0927 21.6069L32.0926 21.6069L51.375 70.9748ZM70.5 56.0036L111.313 89.8159L135.327 60.8298L115.87 28.6074L70.5 56.0036ZM65.8125 48.2407L111.183 20.8446L104.516 9.80484L93.5234 3.06207L65.8125 48.2407ZM57.375 43.0654L85.0859 -2.11317L53.2402 -21.6461L24.1395 1.78106L57.375 43.0654ZM46.125 52.1221V105.122H64.8077L79.3605 93.4065L46.125 52.1221ZM31.6875 52.1221L6.22989 98.6077L18.1252 105.122H31.6875V52.1221ZM19.875 45.6531L45.3326 -0.832523L27.2314 -10.7455L7.19309 -5.8073L19.875 45.6531ZM9.375 48.2407L-3.30691 -3.21967L-25.1801 2.17076L-36.478 21.6605L9.375 48.2407ZM4.875 56.0036C-35.2826 90.5921 -35.2779 90.5976 -35.2731 90.6031C-35.2715 90.605 -35.2667 90.6106 -35.2634 90.6144C-35.2569 90.6219 -35.2502 90.6297 -35.2434 90.6376C-35.2297 90.6534 -35.2155 90.6699 -35.2007 90.687C-35.1711 90.7212 -35.1392 90.758 -35.105 90.7974C-35.0365 90.8761 -34.9589 90.9651 -34.8723 91.0638C-34.6993 91.2611 -34.4898 91.4981 -34.2459 91.7707C-33.7591 92.3148 -33.1288 93.0083 -32.3714 93.8182C-30.8724 95.4209 -28.7919 97.5688 -26.2676 99.9676C-21.7291 104.281 -13.6551 111.439 -3.51162 117.153L48.5116 24.7969C49.4676 25.3355 48.7291 25.0081 46.752 23.1293C46.0185 22.4322 45.4154 21.8077 45.0452 21.4119C44.8681 21.2225 44.7674 21.1103 44.7568 21.0984C44.7521 21.0932 44.7714 21.1146 44.8163 21.1659C44.8389 21.1916 44.868 21.2249 44.9039 21.2663C44.9219 21.2869 44.9416 21.3096 44.963 21.3344C44.9737 21.3468 44.9849 21.3597 44.9965 21.3731C45.0023 21.3798 45.0082 21.3867 45.0142 21.3937C45.0172 21.3972 45.0218 21.4025 45.0233 21.4042C45.0279 21.4096 45.0326 21.415 4.875 56.0036ZM-3.51162 117.153C7.20172 123.187 17.6642 126.311 27.1139 127.465C31.7563 128.032 35.9642 128.101 39.6365 127.891C41.4685 127.786 43.1601 127.612 44.7003 127.398C45.4704 127.291 46.2028 127.174 46.8962 127.051C47.2429 126.989 47.5799 126.926 47.9072 126.862C48.0708 126.83 48.2319 126.797 48.3906 126.764C48.47 126.748 48.5487 126.731 48.6269 126.715C48.6659 126.707 48.7048 126.699 48.7436 126.69C48.7629 126.686 48.7919 126.68 48.8016 126.678C48.8305 126.672 48.8594 126.665 37.6875 74.8562C26.5156 23.0471 26.5445 23.0409 26.5733 23.0347C26.5829 23.0326 26.6117 23.0265 26.6309 23.0224C26.6693 23.0142 26.7076 23.006 26.7459 22.998C26.8226 22.9818 26.8992 22.9658 26.9756 22.95C27.1285 22.9185 27.2809 22.8878 27.4329 22.8579C27.7368 22.798 28.039 22.7414 28.3396 22.688C28.9406 22.5811 29.5351 22.4869 30.1232 22.4053C31.2994 22.242 32.4504 22.1287 33.5764 22.0642C35.8366 21.9348 37.9703 22.0036 39.9642 22.2471C44.1171 22.7543 46.9858 23.9374 48.5116 24.7969L-3.51162 117.153ZM37.6875 74.8562C37.6875 127.856 37.7143 127.856 37.7411 127.856C37.75 127.856 37.7768 127.856 37.7947 127.856C37.8304 127.856 37.8662 127.856 37.9019 127.856C37.9735 127.856 38.045 127.855 38.1167 127.855C38.2599 127.853 38.4033 127.852 38.547 127.849C38.8343 127.845 39.1224 127.838 39.4114 127.829C39.9893 127.81 40.5709 127.783 41.1564 127.747C42.3269 127.674 43.5162 127.565 44.7257 127.42C47.1394 127.131 49.6647 126.696 52.3202 126.105C57.5955 124.931 63.6332 123.086 70.6573 120.343L32.0926 21.6069C29.1793 22.7448 28.3733 22.8411 29.2892 22.6372C29.765 22.5313 30.7317 22.3385 32.1317 22.171C32.8344 22.0869 33.6531 22.0084 34.5796 21.9508C35.0432 21.922 35.5346 21.8983 36.0527 21.8819C36.3118 21.8737 36.5777 21.8673 36.8501 21.8629C36.9864 21.8607 37.1243 21.8591 37.2639 21.8579C37.3336 21.8574 37.4038 21.857 37.4744 21.8567C37.5097 21.8565 37.5452 21.8564 37.5807 21.8564C37.5984 21.8563 37.6251 21.8563 37.634 21.8563C37.6607 21.8563 37.6875 21.8562 37.6875 74.8562ZM70.6573 120.343C84.8471 114.8 95.4281 105.751 100.558 101.029C103.597 98.2311 106.075 95.6711 107.837 93.7635C108.732 92.795 109.478 91.9562 110.057 91.291C110.348 90.9574 110.599 90.6645 110.808 90.4177C110.913 90.2941 111.008 90.1818 111.092 90.0814C111.134 90.0312 111.174 89.9839 111.21 89.9396C111.229 89.9175 111.247 89.8961 111.264 89.8755C111.272 89.8652 111.281 89.855 111.289 89.8451C111.293 89.8401 111.299 89.8328 111.301 89.8303C111.307 89.8231 111.313 89.8159 70.5 56.0036C29.6867 22.1912 29.6926 22.1841 29.6985 22.177C29.7004 22.1747 29.7062 22.1677 29.7101 22.163C29.7178 22.1538 29.7253 22.1447 29.7328 22.1357C29.7477 22.1178 29.7621 22.1004 29.7761 22.0836C29.8041 22.05 29.8303 22.0187 29.8547 21.9896C29.9035 21.9313 29.9453 21.8818 29.9804 21.8404C30.0504 21.7579 30.0944 21.7071 30.1142 21.6843C30.1521 21.6408 30.1027 21.6986 29.9809 21.8305C29.7102 22.1235 29.2698 22.5785 28.7699 23.0386C26.8219 24.8318 27.8404 23.2677 32.0927 21.6069L70.6573 120.343ZM115.87 28.6074L111.183 20.8446L20.4423 75.6368L25.1298 83.3997L115.87 28.6074ZM93.5234 3.06207L85.0859 -2.11317L29.6641 88.2441L38.1016 93.4193L93.5234 3.06207ZM24.1395 1.78106L12.8895 10.8377L79.3605 93.4065L90.6105 84.3498L24.1395 1.78106ZM46.125 -0.877872H31.6875V105.122H46.125V-0.877872ZM57.1451 5.63654L45.3326 -0.832523L-5.58261 92.1387L6.22989 98.6077L57.1451 5.63654ZM7.19309 -5.8073L-3.30691 -3.21967L22.0569 99.7011L32.5569 97.1134L7.19309 -5.8073ZM-36.478 21.6605L-40.978 29.4234L50.728 82.5837L55.228 74.8209L-36.478 21.6605Z" fill="#0F3B74" mask="url(#path-3-inside-1_35_3420)"/>
</g>
</g>
</g>
</g>
</svg>
