<svg width="44" height="22" viewBox="0 0 44 22" fill="none" xmlns="http://www.w3.org/2000/svg">
<mask id="path-1-inside-1_38_4178" fill="white">
<path d="M12 19.3165C5.87503 15.8664 0.250031 9.33571 0.250031 9.33571L3.25003 4.16046L10.25 2.43538L18.125 6.74808H27.75L35.25 0.710295L40.875 4.16046L44 9.33571C44 9.33571 37.875 16.7289 31.25 19.3165C24.625 21.9042 22.125 21.9042 22.125 21.9042C22.125 21.9042 18.125 22.7667 12 19.3165Z"/>
</mask>
<path d="M0.250031 9.33571L-45.6029 -17.2445L-64.5061 15.3651L-39.9076 43.9243L0.250031 9.33571ZM12 19.3165L-14.0116 65.4944L-14.0116 65.4944L12 19.3165ZM22.125 21.9042V-31.0958H16.4756L10.9531 -29.905L22.125 21.9042ZM31.25 19.3165L50.5324 68.6845L50.5324 68.6845L31.25 19.3165ZM44 9.33571L84.8134 43.148L108.827 14.162L89.3702 -18.0604L44 9.33571ZM40.875 4.16046L86.2452 -23.2357L79.579 -34.2754L68.5859 -41.0182L40.875 4.16046ZM35.25 0.710295L62.9609 -44.4683L31.1152 -64.0013L2.01452 -40.5741L35.25 0.710295ZM27.75 6.74808V59.7481H46.4327L60.9855 48.0325L27.75 6.74808ZM18.125 6.74808L-7.33258 53.2337L4.56273 59.7481H18.125V6.74808ZM10.25 2.43538L35.7076 -44.0502L17.6065 -53.9632L-2.43188 -49.025L10.25 2.43538ZM3.25003 4.16046L-9.43188 -47.2999L-31.3051 -41.9095L-42.6029 -22.4197L3.25003 4.16046ZM0.250031 9.33571C-39.9076 43.9243 -39.9028 43.9297 -39.8981 43.9352C-39.8965 43.9371 -39.8917 43.9426 -39.8885 43.9464C-39.8821 43.9538 -39.8755 43.9614 -39.8689 43.9691C-39.8556 43.9845 -39.8418 44.0004 -39.8277 44.0167C-39.7995 44.0494 -39.7696 44.0839 -39.7381 44.1201C-39.6751 44.1926 -39.6055 44.2723 -39.5296 44.3588C-39.3779 44.5318 -39.2001 44.7329 -38.9977 44.9592C-38.5938 45.4107 -38.0853 45.9699 -37.4836 46.6132C-36.2962 47.8828 -34.663 49.5687 -32.6817 51.4515C-29.2291 54.7325 -22.6239 60.6432 -14.0116 65.4944L38.0117 -26.8613C40.4989 -25.4603 41.2291 -24.54 40.338 -25.3869C40.1474 -25.568 39.9916 -25.7304 39.9329 -25.7931C39.9116 -25.8159 39.9327 -25.7939 40.005 -25.7131C40.0418 -25.6721 40.0927 -25.6147 40.159 -25.5391C40.1922 -25.5012 40.2295 -25.4586 40.2708 -25.411C40.2915 -25.3872 40.3132 -25.3622 40.336 -25.3358C40.3474 -25.3227 40.359 -25.3092 40.371 -25.2953C40.377 -25.2884 40.383 -25.2814 40.3891 -25.2743C40.3921 -25.2708 40.3968 -25.2654 40.3983 -25.2637C40.4029 -25.2583 40.4076 -25.2529 0.250031 9.33571ZM-14.0116 65.4944C-4.82949 70.6666 4.36736 73.467 12.9343 74.5133C17.1353 75.0263 20.9975 75.0952 24.4344 74.8983C26.1487 74.8002 27.7502 74.6364 29.2298 74.4309C29.9695 74.3282 30.6789 74.2151 31.3569 74.0945C31.6959 74.0343 32.0272 73.9721 32.3505 73.9085C32.5122 73.8766 32.6719 73.8444 32.8297 73.8119C32.9085 73.7956 32.9869 73.7793 33.0648 73.7628C33.1037 73.7546 33.1425 73.7464 33.1812 73.7381C33.2006 73.734 33.2295 73.7278 33.2392 73.7257C33.268 73.7195 33.2969 73.7133 22.125 21.9042C10.9531 -29.905 10.982 -29.9112 11.0108 -29.9174C11.0204 -29.9195 11.0493 -29.9256 11.0685 -29.9297C11.1069 -29.9379 11.1454 -29.9461 11.1838 -29.9542C11.2607 -29.9704 11.3376 -29.9865 11.4146 -30.0023C11.5684 -30.0341 11.7223 -30.0651 11.8762 -30.0954C12.184 -30.156 12.4921 -30.2137 12.8003 -30.2685C13.4167 -30.3781 14.0342 -30.4761 14.6526 -30.562C15.8895 -30.7337 17.1306 -30.8571 18.3743 -30.9283C20.8698 -31.0712 23.3492 -31.0024 25.7845 -30.7049C30.8202 -30.0899 34.9546 -28.5834 38.0117 -26.8613L-14.0116 65.4944ZM22.125 21.9042C22.125 74.9042 22.1518 74.9042 22.1786 74.9041C22.1875 74.9041 22.2143 74.9041 22.2322 74.9041C22.2679 74.904 22.3035 74.9039 22.3392 74.9037C22.4106 74.9034 22.4819 74.903 22.5533 74.9024C22.6959 74.9013 22.8384 74.8996 22.9808 74.8973C23.2656 74.8927 23.5501 74.8859 23.8341 74.8769C24.402 74.8589 24.9686 74.8321 25.5338 74.797C26.6636 74.7268 27.7911 74.6229 28.9162 74.4883C31.1609 74.2197 33.4265 73.8248 35.7187 73.3146C40.2674 72.3021 45.1644 70.7811 50.5324 68.6845L11.9677 -30.0514C10.7106 -29.5604 11.0452 -29.7876 12.6877 -30.1532C13.5267 -30.3399 14.7532 -30.5731 16.3222 -30.7609C17.1093 -30.8551 17.9898 -30.9387 18.957 -30.9988C19.4409 -31.0289 19.9473 -31.0531 20.4754 -31.0699C20.7395 -31.0782 21.009 -31.0847 21.284 -31.0891C21.4215 -31.0913 21.5603 -31.093 21.7005 -31.0941C21.7706 -31.0947 21.841 -31.0951 21.9117 -31.0954C21.9471 -31.0956 21.9826 -31.0957 22.0181 -31.0957C22.0359 -31.0958 22.0626 -31.0958 22.0715 -31.0958C22.0983 -31.0958 22.125 -31.0958 22.125 21.9042ZM50.5324 68.6845C63.0658 63.7891 72.0532 55.987 76.0035 52.3508C78.4529 50.0962 80.4441 48.0387 81.8678 46.4978C82.5931 45.7128 83.2065 45.0233 83.6955 44.4618C83.9409 44.18 84.1574 43.9274 84.3436 43.708C84.4368 43.5982 84.5226 43.4963 84.6009 43.4029C84.6401 43.3562 84.6774 43.3116 84.7128 43.2691C84.7305 43.2478 84.7477 43.2271 84.7645 43.2069C84.7729 43.1969 84.7811 43.1869 84.7893 43.1771C84.7933 43.1722 84.7994 43.1649 84.8014 43.1625C84.8074 43.1552 84.8134 43.148 44 9.33571C3.18671 -24.4766 3.19263 -24.4838 3.19853 -24.4909C3.20047 -24.4932 3.20636 -24.5003 3.21024 -24.505C3.21801 -24.5144 3.22572 -24.5236 3.23336 -24.5328C3.24863 -24.5512 3.26364 -24.5693 3.27837 -24.5869C3.30784 -24.6223 3.33624 -24.6563 3.3636 -24.6889C3.4183 -24.7542 3.46893 -24.8142 3.51563 -24.8692C3.60888 -24.9792 3.68737 -25.0703 3.75232 -25.1449C3.88044 -25.292 3.9636 -25.3836 4.01119 -25.4352C4.07937 -25.509 4.12528 -25.5564 4.21529 -25.6393C4.26287 -25.6831 4.70791 -26.0972 5.58766 -26.7147C6.34337 -27.2451 8.50387 -28.6985 11.9677 -30.0514L50.5324 68.6845ZM89.3702 -18.0604L86.2452 -23.2357L-4.49513 31.5566L-1.37013 36.7318L89.3702 -18.0604ZM68.5859 -41.0182L62.9609 -44.4683L7.53916 45.8889L13.1642 49.3391L68.5859 -41.0182ZM2.01452 -40.5741L-5.48549 -34.5363L60.9855 48.0325L68.4855 41.9947L2.01452 -40.5741ZM27.75 -46.2519H18.125V59.7481H27.75V-46.2519ZM43.5826 -39.7375L35.7076 -44.0502L-15.2076 48.921L-7.33258 53.2337L43.5826 -39.7375ZM-2.43188 -49.025L-9.43188 -47.2999L15.9319 55.6208L22.9319 53.8957L-2.43188 -49.025ZM-42.6029 -22.4197L-45.6029 -17.2445L46.103 35.9159L49.103 30.7406L-42.6029 -22.4197Z" fill="#D9D9D9" mask="url(#path-1-inside-1_38_4178)"/>
</svg>
